<svg xmlns="http://www.w3.org/2000/svg" width="125" height="41" viewBox="0 0 125 41" fill="none"><path fill-rule="evenodd" clip-rule="evenodd" d="M3.33332 3.10319e-06H14.1462C14.7474 -0.000293725 15.3428 0.117907 15.8983 0.347849C16.4538 0.577791 16.9586 0.914981 17.3837 1.34011C17.8088 1.76524 18.146 2.26998 18.376 2.8255C18.6059 3.38102 18.7241 3.97641 18.7238 4.57763V14.1484C18.7241 14.7496 18.6059 15.345 18.376 15.9005C18.146 16.456 17.8088 16.9608 17.3837 17.3859C16.9586 17.811 16.4538 18.1482 15.8983 18.3782C15.3428 18.6081 14.7474 18.7263 14.1462 18.726H4.58217C4.25095 18.726 3.9333 18.8576 3.6991 19.0918C3.46489 19.326 3.33332 19.6437 3.33332 19.9749C3.33332 20.3061 3.46489 20.6238 3.6991 20.858C3.9333 21.0922 4.25095 21.2237 4.58217 21.2237H14.1462C15.3602 21.2237 16.5246 21.706 17.383 22.5645C18.2415 23.423 18.7238 24.5873 18.7238 25.8014V35.3744C18.7238 35.7056 18.8554 36.0233 19.0896 36.2575C19.3238 36.4917 19.6414 36.6232 19.9726 36.6232C20.3039 36.6232 20.6215 36.4917 20.8557 36.2575C21.0899 36.0233 21.2215 35.7056 21.2215 35.3744V25.8014C21.2221 24.5875 21.7046 23.4235 22.5629 22.5652C23.4213 21.7068 24.5853 21.2243 25.7991 21.2237H35.3744C36.5883 21.2243 37.7523 21.7068 38.6106 22.5652C39.469 23.4235 39.9515 24.5875 39.952 25.8014V36.63C39.952 37.0673 39.8659 37.5004 39.6984 37.9044C39.531 38.3084 39.2856 38.6755 38.9763 38.9846C38.6669 39.2937 38.2997 39.5389 37.8956 39.706C37.4915 39.8732 37.0583 39.9591 36.621 39.9588H20.1127C19.6735 39.959 19.2385 39.8726 18.8328 39.7044C18.427 39.5362 18.0585 39.2896 17.7482 38.9787C15.9167 37.1472 12.3463 38.0957 10.0383 39.2722C8.74384 39.9281 7.27583 40.16 5.84226 39.935C4.40869 39.7101 3.08227 39.0397 2.05095 38.0189C1.01962 36.998 0.335697 35.6785 0.0960863 34.2473C-0.143525 32.8161 0.0733302 31.3458 0.715919 30.0448C1.88121 27.6961 2.84326 24.076 0.991435 22.2219C0.356805 21.5869 0.000219282 20.7259 2.7592e-05 19.8281V3.34233C-0.00175842 2.90367 0.0831778 2.46899 0.249947 2.06326C0.416716 1.65753 0.662032 1.28875 0.971794 0.978151C1.28156 0.66755 1.64965 0.421215 2.05493 0.253348C2.4602 0.0854812 2.89465 -0.000595734 3.33332 3.10319e-06ZM21.2893 14.5662C21.2893 10.703 22.8239 6.99803 25.5556 4.26634C28.2873 1.53465 31.9923 3.10319e-06 35.8554 3.10319e-06H39.0352C39.2957 3.10319e-06 39.5456 0.103467 39.7298 0.287697C39.914 0.471927 40.0175 0.7218 40.0175 0.982341V4.16208C40.0175 6.07483 39.6408 7.96887 38.9087 9.736C38.1767 11.5031 37.1037 13.1087 35.7511 14.4612C34.3984 15.8136 32.7927 16.8863 31.0254 17.6181C29.2582 18.3498 27.3641 18.7263 25.4513 18.726H24.8913C23.9369 18.723 23.0224 18.3426 22.3476 17.6677C21.6727 16.9928 21.2922 16.0784 21.2893 15.124V14.5662Z" fill="#0BE087"></path><path d="M125.003 12.5388V12.848H117.452C117.556 14.7451 118.463 15.8583 119.928 15.8583C121.206 15.8583 122.094 15.1581 122.361 14.023H125.003C124.63 16.4788 122.732 17.9211 119.928 17.9211C116.71 17.9211 114.812 15.9262 114.812 12.5348C114.812 9.14338 116.71 7.14844 119.928 7.14844C123.103 7.15442 125.003 9.1354 125.003 12.5388ZM119.928 9.19725C118.545 9.19725 117.659 10.1947 117.474 11.9203H122.341C122.184 10.1867 121.288 9.19725 119.928 9.19725Z" fill="white"></path><path d="M114.347 7.3579V9.23517H111.129V14.2225C111.129 15.1921 111.748 15.7486 112.779 15.7486C113.26 15.7522 113.734 15.6385 114.162 15.4175V17.4523C113.452 17.7626 112.687 17.9236 111.913 17.9252C109.707 17.9252 108.406 16.6883 108.406 14.5836V9.24116H106.922V7.36389H108.572V3.88672H111.295V4.75454C111.295 6.0732 110.297 7.0028 108.653 7.31202V7.35196L114.347 7.3579Z" fill="white"></path><path d="M103.038 10.9089V7.36186H105.761V17.7156H103.038V14.1467H102.998C102.998 16.5186 101.615 17.9211 99.3052 17.9211C96.7118 17.9211 95.1797 15.9262 95.1797 12.5348C95.1797 9.14338 96.7058 7.14844 99.3052 7.14844C101.615 7.14844 102.998 8.54486 102.998 10.9029L103.038 10.9089ZM100.562 15.7566C102.214 15.7566 103.183 14.436 103.183 12.5388C103.183 10.6416 102.214 9.29899 100.562 9.29899C98.9102 9.29899 97.9427 10.5159 97.9427 12.5388C97.9427 14.5616 98.9202 15.7566 100.57 15.7566H100.562Z" fill="white"></path><path d="M93.6589 7.15305C94.209 7.14223 94.7544 7.2554 95.2548 7.4842L94.4708 9.91802C94.0281 9.67698 93.5325 9.54951 93.0285 9.54698C91.4325 9.54698 90.4909 10.8457 90.4909 13.0321V17.7143H87.7578V7.36049H90.4809V11.6297H90.5228C90.5228 8.80286 91.6978 7.15305 93.6589 7.15305Z" fill="white"></path><path d="M86.2683 12.5388V12.848H78.7194C78.8212 14.7451 79.7289 15.8583 81.1952 15.8583C82.4739 15.8583 83.3597 15.1581 83.629 14.023H86.2683C85.8972 16.4788 84 17.9211 81.1952 17.9211C77.9773 17.9211 76.0781 15.9262 76.0781 12.5348C76.0781 9.14338 77.9773 7.14844 81.1952 7.14844C84.3711 7.15442 86.2683 9.1354 86.2683 12.5388ZM81.1952 9.19725C79.8127 9.19725 78.9249 10.1947 78.7394 11.9203H83.607C83.4434 10.1867 82.5557 9.19725 81.1952 9.19725Z" fill="white"></path><path d="M70.9556 7.15483C73.5491 7.15483 75.1031 9.14977 75.1031 12.5412C75.1031 15.9326 73.555 17.9275 70.9556 17.9275C68.6455 17.9275 67.265 16.531 67.265 14.1531H67.2231V17.722H64.5V2.47266H67.2231V10.9153H67.265C67.265 8.55724 68.6455 7.15483 70.9556 7.15483ZM69.6988 15.757C71.3486 15.757 72.3182 14.5601 72.3182 12.5392C72.3182 10.5183 71.3486 9.29939 69.6988 9.29939C68.049 9.29939 67.0795 10.62 67.0795 12.5392C67.0795 14.4583 68.047 15.757 69.6988 15.757Z" fill="white"></path><path d="M62.4262 7.36133H59.7031V17.7151H62.4262V7.36133Z" fill="white"></path><path d="M51.8937 2.45117V15.4263H58.5967V17.7145H49.0469V2.45117H51.8937Z" fill="white"></path><path d="M59.7031 6.32383V2.80078H62.4262V3.59876C62.4265 3.95653 62.3562 4.31082 62.2195 4.64143C62.0828 4.97204 61.8822 5.27249 61.6293 5.52556C61.3765 5.77864 61.0762 5.97938 60.7457 6.11635C60.4151 6.25332 60.0609 6.32383 59.7031 6.32383Z" fill="white"></path><path d="M87.9292 30.4745H87.8893C86.3911 30.2092 85.4794 29.9878 85.4794 29.1619C85.4794 28.3639 86.1776 27.913 87.3926 27.913C88.6075 27.913 89.3456 28.5654 89.3456 29.7085V29.908H91.6617V29.7085C91.6617 27.514 90.0658 26.1914 87.4005 26.1914C84.7353 26.1914 83.1374 27.3624 83.1374 29.3275C83.1374 31.6895 85.2819 32.0386 87.0036 32.3199L87.0634 32.3318C88.6593 32.6171 89.6149 32.8645 89.6149 33.8739C89.6149 34.7577 88.807 35.2704 87.4005 35.2704C85.9941 35.2704 85.1463 34.5801 85.1463 33.3772V33.1777H82.8281V33.3772C82.8281 35.6554 84.5338 37.016 87.3926 37.016C90.2513 37.016 91.957 35.7751 91.957 33.6984C91.957 31.1987 89.7246 30.7977 87.9292 30.4745Z" fill="white"></path><path d="M66.4538 29.9597V26.4106H69.1749V36.7664H66.4538V33.1974H66.4119C66.4119 35.5694 65.0294 36.9719 62.7193 36.9719C60.1259 36.9719 58.5938 34.977 58.5938 31.5856C58.5938 28.1942 60.1199 26.1992 62.7193 26.1992C65.0294 26.1992 66.4119 27.5956 66.4119 29.9537L66.4538 29.9597ZM63.9781 34.8074C65.6279 34.8074 66.5975 33.4867 66.5975 31.5896C66.5975 29.6924 65.6279 28.3497 63.9781 28.3497C62.3283 28.3497 61.3587 29.5667 61.3587 31.5896C61.3587 33.6124 62.3343 34.8074 63.9781 34.8074Z" fill="white"></path><path d="M77.942 26.2056C80.5354 26.2056 82.0875 28.2005 82.0875 31.5919C82.0875 34.9833 80.5414 36.9783 77.942 36.9783C75.6319 36.9783 74.2494 35.5818 74.2494 33.2038H74.2075V36.7728H71.4844V21.5234H74.2075V29.966H74.2494C74.2494 27.608 75.6319 26.2056 77.942 26.2056ZM76.6832 34.8078C78.333 34.8078 79.3026 33.6108 79.3026 31.59C79.3026 29.5691 78.333 28.3501 76.6832 28.3501C75.0334 28.3501 74.0638 29.6708 74.0638 31.59C74.0638 33.5091 75.0334 34.8078 76.6832 34.8078Z" fill="white"></path><path d="M51.8937 21.5039V34.479H58.5967V36.7672H49.0469V21.5039H51.8937Z" fill="white"></path></svg>